:version 1.10
:name ASF
:units
  mass 1
  length 1
  angle deg
:documentation
  ASF file generated by Kaydara
:root
  axis xyz
  order  tx ty tz rx ry rz
  position 0 0 0
  orientation 0 0 0
:bonedata
  begin
    id 1
    name RightUpLegDummy
    direction -0.718183 -0.695806 0.00816078
    length 4.904
    axis 0 0 0 xyz
  end
  begin
    id 2
    name RightUpLeg
    direction 3.53373e-006 -0.995788 0.0916898
    length 17.4976
    axis -3.49089 -0.000906625 0.000286804 xyz
    dof rx ry rz
  end
  begin
    id 3
    name RightLeg
    direction 0.00371092 -0.995096 -0.0988419
    length 16.5821
    axis 3.68512 0.0193738 -0.131023 xyz
    dof rx ry rz
  end
  begin
    id 4
    name RightFoot
    direction 0.00079151 -0.46099 0.887405
    length 3.77069
    axis 4.81691e-005 -0.120479 -0.188788 xyz
    dof rx ry rz
  end
  begin
    id 5
    name RightToes
    direction 0.00124746 -0.014064 0.9999
    length 3.85082
    axis 0.000481921 0.542163 -0.142578 xyz
    dof rx ry rz
  end
  begin
    id 6
    name SpineDummy
    direction 8.3039e-015 1 4.57515e-016
    length 4.6813
    axis 0 0 0 xyz
  end
  begin
    id 7
    name Spine
    direction -3.15643e-008 0.999988 0.00495137
    length 10.1015
    axis -0.001389 0.000121418 2.40972e-006 xyz
    dof rx ry rz
  end
  begin
    id 8
    name Spine1
    direction 0 0 0
    length 0
    axis -0.001389 0.000121451 1.30017e-006 xyz
    dof rx ry rz
  end
  begin
    id 9
    name HEadDummy
    direction -1.99912e-008 0.999999 0.00127422
    length 3.43865
    axis -0.001389 0.000121451 1.30017e-006 xyz
  end
  begin
    id 10
    name HEad
    direction -0.0222688 0.980941 0.193023
    length 5.12695
    axis -0.001389 0.000121451 1.30017e-006 xyz
    dof rx ry rz
  end
  begin
    id 11
    name LeftShoulder1Dummy
    direction 0.998891 -0.0402509 -0.0244456
    length 3.5433
    axis -0.001389 0.000121451 1.30017e-006 xyz
  end
  begin
    id 12
    name LeftShoulder1
    direction 0.99951 -0.000327763 0.0313091
    length 4.05031
    axis -0.001389 0.000121451 1.30017e-006 xyz
    dof rx ry rz
  end
  begin
    id 13
    name LeftArm
    direction 0.998561 -0.00100056 -0.0536182
    length 10.3537
    axis -23.1894 0.134784 0.967509 xyz
    dof rx ry rz
  end
  begin
    id 14
    name LeftForeArm
    direction 0.998903 0.00866432 0.046012
    length 8.70632
    axis -9.91835 -0.06569 -0.177794 xyz
    dof rx ry rz
  end
  begin
    id 15
    name LeftHand
    direction 0.992938 -0.0411637 0.11126
    length 5.32135
    axis -0.00960232 -0.00340091 0.185173 xyz
    dof rx ry rz
  end
  begin
    id 16
    name RightShoulderDummy
    direction -0.998891 -0.0402509 -0.0244414
    length 3.5433
    axis -0.001389 0.000121451 1.30017e-006 xyz
  end
  begin
    id 17
    name RightShoulder
    direction -0.99951 -0.000327807 0.0313133
    length 4.05031
    axis 0.215806 0.000203643 -0.0068026 xyz
    dof rx ry rz
  end
  begin
    id 18
    name RightArm
    direction -0.998573 -0.000999564 -0.053403
    length 10.3947
    axis -23.2009 -0.134239 -0.964101 xyz
    dof rx ry rz
  end
  begin
    id 19
    name RightForeArm
    direction -0.998898 0.00868028 0.0461306
    length 8.68355
    axis -9.92322 0.0658061 0.178868 xyz
    dof rx ry rz
  end
  begin
    id 20
    name RightHand
    direction -0.992843 -0.0414603 0.112003
    length 5.28593
    axis -0.00960638 0.00330671 -0.185228 xyz
    dof rx ry rz
  end
  begin
    id 21
    name LeftUpLegDummy
    direction 0.718183 -0.695806 0.00816078
    length 4.904
    axis 0 0 0 xyz
  end
  begin
    id 22
    name LeftUpLeg
    direction -6.81752e-006 -0.995793 0.0916337
    length 17.4976
    axis -3.48766 0.00143442 -0.000524262 xyz
    dof rx ry rz
  end
  begin
    id 23
    name LeftLeg
    direction -0.00601358 -0.995091 -0.0987824
    length 16.5821
    axis 3.68178 -0.00654042 -0.000285133 xyz
    dof rx ry rz
  end
  begin
    id 24
    name LeftFoot
    direction -0.00417578 -0.460984 0.887399
    length 3.77069
    axis 1.87233e-006 4.66016e-005 -8.6538e-006 xyz
    dof rx ry rz
  end
  begin
    id 25
    name LeftToes
    direction 0.00818058 -0.00485161 0.999955
    length 3.85048
    axis 1.06247e-005 4.65869e-005 -8.65513e-006 xyz
    dof rx ry rz
  end
:hierarchy
  begin
    root RightUpLegDummy SpineDummy LeftUpLegDummy
    RightUpLegDummy RightUpLeg
    RightUpLeg RightLeg
    RightLeg RightFoot
    RightFoot RightToes
    SpineDummy Spine
    Spine Spine1
    Spine1 HEadDummy LeftShoulder1Dummy RightShoulderDummy
    HEadDummy HEad
    LeftShoulder1Dummy LeftShoulder1
    LeftShoulder1 LeftArm
    LeftArm LeftForeArm
    LeftForeArm LeftHand
    RightShoulderDummy RightShoulder
    RightShoulder RightArm
    RightArm RightForeArm
    RightForeArm RightHand
    LeftUpLegDummy LeftUpLeg
    LeftUpLeg LeftLeg
    LeftLeg LeftFoot
    LeftFoot LeftToes
  end

:SAMPLES-PER-SECOND 30
:FRAME-RANGE 1-668
:FULLY-SPECIFIED
:DEGREES
21
root  68.175 39.445 -53.2114 -2.81174 -51.5966 2.5487
RightUpLeg  2.9353 -8.62072 -3.66393
RightLeg  12.6456 -7.24242 -0.0486815
RightFoot  -15.1044 0.0524583 4.71239
RightToes  -1.33073e-015 0 -3.6325e-017
Spine  4.05949 -0.196947 9.24457
Spine1  2.47412 0.646291 -1.14062
HEad  9.42057 4.0377 -22.2901
LeftShoulder1  1.35958 0.14614 -34.4168
LeftArm  22.8529 6.72188 -33.5106
LeftForeArm  -1.03505 -15.9652 -11.2668
LeftHand  0.37981 -3.28644 -4.84863
RightShoulder  8.53769 10.7575 52.3905
RightArm  31.7219 1.37605 14.867
RightForeArm  5.69814 8.48155 16.3266
RightHand  0.489953 5.25232 5.02157
LeftUpLeg  -16.1261 10.5192 1.61198
LeftLeg  25.8256 -3.45348 -1.49507
LeftFoot  -3.45837 0.984885 -13.9389
LeftToes  -2.73175e-012 1.00346e-010 -4.28452e-011
22
root  68.0821 39.4106 -52.951 -2.9607 -50.8994 2.87664
RightUpLeg  3.29662 -8.99581 -4.24187
RightLeg  12.7403 -7.39499 -0.0795876
RightFoot  -15.5003 0.0816705 5.14147
RightToes  -1.33073e-015 0 -3.6325e-017
Spine  4.05195 -0.0236144 9.39397
Spine1  2.42968 0.890478 -1.44808
HEad  10.4959 5.978 -20.7229
LeftShoulder1  1.31655 0.24819 -34.3635
LeftArm  24.9315 7.93069 -33.4944
LeftForeArm  -3.99153 -17.7101 -9.8431
LeftHand  0.385435 -3.13433 -5.02382
RightShoulder  8.5294 10.7393 52.406
RightArm  34.7862 1.17559 15.026
RightForeArm  3.73553 10.3078 15.5091
RightHand  0.469459 5.26515 4.79226
LeftUpLeg  -17.9937 10.92 1.23823
LeftLeg  28.4535 -4.04583 -2.04478
LeftFoot  -4.26857 0.820881 -12.8277
LeftToes  -2.73175e-012 1.00346e-010 -4.28452e-011
23
root  67.9789 39.4048 -52.6425 -2.93913 -50.343 3.27365
RightUpLeg  3.65654 -9.27108 -4.86583
RightLeg  12.4159 -7.53285 -0.0793439
RightFoot  -15.6879 0.106373 5.60347
RightToes  -1.33073e-015 0 -3.6325e-017
Spine  4.13731 0.155988 9.50765
Spine1  2.02846 1.14705 -2.007
HEad  11.008 8.37003 -18.7736
LeftShoulder1  1.29056 0.321635 -34.4771
LeftArm  24.4965 8.98231 -33.0706
LeftForeArm  -4.37345 -17.9802 -9.5839
LeftHand  0.399622 -3.15912 -5.19986
RightShoulder  8.39577 10.5836 52.163
RightArm  37.6067 0.809872 15.6321
RightForeArm  1.95953 12.4061 14.2579
RightHand  0.430247 5.03384 4.47796
LeftUpLeg  -19.446 11.3129 0.905872
LeftLeg  28.9511 -4.24796 -2.21168
LeftFoot  -4.93532 0.714825 -12.2103
LeftToes  -2.73175e-012 1.00346e-010 -4.28452e-011
24
root  67.8585 39.4197 -52.2964 -2.82802 -49.7839 3.6718
RightUpLeg  4.20037 -9.44428 -5.48923
RightLeg  11.6253 -7.75053 -0.0418801
RightFoot  -15.6966 0.128254 6.16869
RightToes  -1.33073e-015 0 -3.6325e-017
Spine  4.22957 0.320707 9.36852
Spine1  1.60945 1.33886 -2.49489
HEad  10.8341 10.8452 -16.8191
LeftShoulder1  1.27014 0.381858 -34.6022
LeftArm  23.1831 9.90416 -32.5627
LeftForeArm  -3.89684 -17.4211 -10.0751
LeftHand  0.388185 -3.01446 -5.14315
RightShoulder  8.476 10.7579 52.021
RightArm  40.2279 -0.129956 16.1088
RightForeArm  -0.366875 14.9846 12.3012
RightHand  0.396684 4.9431 4.14711
LeftUpLeg  -20.3881 11.6757 0.670896
LeftLeg  27.4539 -3.64616 -1.72712
LeftFoot  -5.29903 0.664232 -11.9515
LeftToes  -2.73175e-012 1.00346e-010 -4.28452e-011
25
root  67.7214 39.422 -51.9018 -2.60882 -49.2444 3.94272
RightUpLeg  4.88366 -9.62955 -6.10085
RightLeg  10.7183 -7.98066 0.0647063
RightFoot  -15.7184 0.150737 6.72937
RightToes  -1.33073e-015 0 -3.6325e-017
Spine  4.26005 0.483422 9.14504
Spine1  1.37617 1.51105 -2.90966
HEad  10.1006 13.0693 -14.937
LeftShoulder1  1.26813 0.391877 -34.6673
LeftArm  20.3474 10.461 -31.9916
LeftForeArm  -1.82595 -15.7421 -11.4431
LeftHand  0.383537 -2.92102 -5.14372
RightShoulder  8.28055 10.447 51.9571
RightArm  44.685 0.0581691 16.4542
RightForeArm  -4.52885 17.5269 10.2772
RightHand  0.345946 4.82913 3.62579
LeftUpLeg  -20.9075 12.2144 0.613993
LeftLeg  24.6574 -2.61148 -0.984827
LeftFoot  -5.18445 0.649619 -11.4733
LeftToes  -2.73175e-012 1.00346e-010 -4.28452e-011
26
root  67.5696 39.4066 -51.4593 -2.18877 -48.7592 4.07843
RightUpLeg  5.51756 -9.79173 -6.65772
RightLeg  9.84711 -8.14892 0.199029
RightFoot  -15.8011 0.17558 7.25578
RightToes  -1.33073e-015 0 -3.6325e-017
Spine  4.16428 0.650238 8.81119
Spine1  1.29966 1.66009 -3.20151
HEad  9.07989 14.7178 -12.9497
LeftShoulder1  1.26685 0.39744 -34.6983
LeftArm  17.2636 10.8446 -31.282
LeftForeArm  0.372091 -13.6108 -12.9969
LeftHand  0.401157 -2.83627 -5.45237
RightShoulder  8.36265 10.5963 51.9171
RightArm  46.8969 -0.0580666 16.7775
RightForeArm  -6.7551 19.4663 8.41474
RightHand  0.308488 4.76279 3.2264
LeftUpLeg  -21.3219 13.3365 0.576017
LeftLeg  21.4418 -1.35803 -0.266989
LeftFoot  -4.90101 0.65996 -11.1823
LeftToes  -2.73175e-012 1.00346e-010 -4.28452e-011
27
root  67.4025 39.3585 -50.9496 -1.56034 -48.116 3.98122
RightUpLeg  6.21187 -9.83946 -7.04239
RightLeg  9.03685 -8.59331 0.233775
RightFoot  -15.9631 0.214699 7.99563
RightToes  -1.33073e-015 0 -3.6325e-017
Spine  4.0212 0.714407 8.535
Spine1  1.26607 1.70845 -3.44689
HEad  7.37309 14.3952 -11.0755
LeftShoulder1  1.26612 0.397132 -34.6715
LeftArm  14.5354 11.2126 -30.4121
LeftForeArm  2.5332 -11.3575 -14.3928
LeftHand  0.438433 -2.87088 -5.95027
RightShoulder  8.4356 10.6989 51.9894
RightArm  44.4572 0.727747 17.3457
RightForeArm  -3.77457 18.9622 8.67582
RightHand  0.285358 5.18305 2.81885
LeftUpLeg  -21.8798 14.7516 0.497938
LeftLeg  18.7919 0.0859185 0.352244
LeftFoot  -4.448 0.66584 -10.5911
LeftToes  -2.73175e-012 1.00346e-010 -4.28452e-011
28
root  67.2194 39.2692 -50.3581 -0.90193 -47.3083 3.76945
RightUpLeg  7.05381 -9.95175 -7.46337
RightLeg  8.39629 -9.10409 0.283937
RightFoot  -16.3136 0.276017 8.89443
RightToes  -1.33073e-015 0 -3.6325e-017
Spine  3.90152 0.747411 8.18819
Spine1  1.26276 1.70925 -3.52672
HEad  5.38565 12.5093 -9.75091
LeftShoulder1  1.27706 0.358296 -34.5192
LeftArm  12.0344 11.5079 -29.5315
LeftForeArm  4.34541 -9.05942 -15.5663
LeftHand  0.464266 -2.73824 -6.42722
RightShoulder  8.5736 10.9095 52.0648
RightArm  45.563 0.821366 17.4564
RightForeArm  -5.19638 20.2178 7.48543
RightHand  0.272715 5.25654 2.65736
LeftUpLeg  -22.5596 16.0179 0.379436
LeftLeg  17.2304 1.33874 0.785553
LeftFoot  -4.12933 0.638082 -9.71638
LeftToes  -2.73175e-012 1.00346e-010 -4.28452e-011
29
root  67.0152 39.1392 -49.6722 -0.28877 -46.4275 3.58505
RightUpLeg  7.96549 -10.1829 -8.04569
RightLeg  8.04024 -9.45388 0.334696
RightFoot  -16.8563 0.366781 9.97209
RightToes  -1.33073e-015 0 -3.6325e-017
Spine  3.73761 0.770845 7.81834
Spine1  1.28871 1.7126 -3.6142
HEad  3.3279 9.99496 -8.44392
LeftShoulder1  1.28906 0.311924 -34.3094
LeftArm  10.4251 11.6987 -28.4335
LeftForeArm  4.90515 -7.0792 -16.4615
LeftHand  0.509351 -2.64979 -7.15569
RightShoulder  8.78423 11.2739 52.0275
RightArm  44.5564 0.563728 17.7982
RightForeArm  -4.73738 20.6969 6.94464
RightHand  0.24908 5.21967 2.41078
LeftUpLeg  -23.2893 16.8003 0.214501
LeftLeg  16.8913 2.5543 1.19208
LeftFoot  -4.07546 0.578443 -8.71486
LeftToes  -2.73175e-012 1.00346e-010 -4.28452e-011
30
root  66.7949 38.963 -48.8808 0.299552 -45.6378 3.46006
RightUpLeg  8.78903 -10.3812 -8.72014
RightLeg  8.11352 -9.69233 0.164418
RightFoot  -17.6185 0.503164 11.329
RightToes  -1.33073e-015 0 -3.6325e-017
Spine  3.56162 0.812989 7.59841
Spine1  1.14376 1.79488 -3.98592
HEad  1.81169 7.69382 -6.82502
LeftShoulder1  1.29214 0.279416 -34.0027
LeftArm  9.7972 11.7545 -27.0565
LeftForeArm  4.39182 -5.45165 -17.1697
LeftHand  0.546934 -2.4199 -7.94438
RightShoulder  8.65928 11.0718 52.0002
RightArm  45.1484 0.89888 17.9534
RightForeArm  -5.78271 21.1148 6.64818
RightHand  0.24404 5.25359 2.34617
LeftUpLeg  -23.9338 16.8614 0.0756118
LeftLeg  17.6747 3.86381 1.69868
LeftFoot  -4.14916 0.500231 -7.55732
LeftToes  -2.73175e-012 1.00346e-010 -4.28452e-011
31
root  66.5614 38.7678 -47.9884 0.509771 -44.8371 3.73687
RightUpLeg  9.84073 -10.8107 -9.96152
RightLeg  8.31201 -9.326 0.0575649
RightFoot  -18.3988 0.673113 12.8979
RightToes  -1.33073e-015 0 -3.6325e-017
Spine  3.42443 0.848712 7.0398
Spine1  0.98719 1.91804 -4.55069
HEad  0.977835 5.94813 -5.19051
LeftShoulder1  1.30043 0.231743 -33.6768
LeftArm  9.1201 11.4366 -25.4408
LeftForeArm  3.80243 -3.67445 -17.8133
LeftHand  0.585462 -2.25484 -8.71455
RightShoulder  8.57167 10.9211 52.0124
RightArm  45.0118 0.458569 17.8695
RightForeArm  -6.16889 21.6061 6.25427
RightHand  0.259388 5.32107 2.49332
LeftUpLeg  -24.3134 16.551 -0.491103
LeftLeg  19.2831 5.54854 2.47655
LeftFoot  -2.92572 0.556357 -7.31792
LeftToes  -2.73175e-012 1.00346e-010 -4.28452e-011
